# xmcd
#
# Track frame offsets:
#	150
#	15002
#	34631
#	54617
#	72058
#	87712
#	99208
#	113603
#	130354
#	147906
#	160200
#	174554
#	184390
#	202456
#	222775
#	233937
#	248931
#	265582
#	277273
#	294604
#	307298
#	321397
#	334758
#
# Disc length: 4688 seconds
#
# Revision: 1
# Processed by: cddbd v1.5.2PL0 Copyright (c) Steve Scherf et al.
# Submitted via: audiograbber 1.83.01
#
DISCID=64124e17
DTITLE=Various Artist - Country-Mix 01
DYEAR=2003
DGENRE=Country
TTITLE0=Katja Kaye - On My Way
TTITLE1=Alan Jackson - Gone Country
TTITLE2=Shania Twain - Whose Bed Have Your Boots Been Under
TTITLE3=Alan Jackson - I Don't Even Know Your Name
TTITLE4=Martina McBride - Happy Girl
TTITLE5=Johnny Cash - Country Boy
TTITLE6=Katja Kaye - Blanket On The Ground
TTITLE7=Carlene Carter - Wastin' Time With You
TTITLE8=Alan Jackson - It's Five o' Clock Somewhere
TTITLE9=Chely Wright - Just Another Heartache
TTITLE10=LeeAnn Womack - Trouble's Here
TTITLE11=Johnny Cash - I Won't Back Down
TTITLE12=Sherrie Austin - Trouble In Paradise
TTITLE13=Alan Jackson - Little Man
TTITLE14=Katja Kaye - Instant Love, Just Add Money
TTITLE15=JoDee Messina - I'm Alright
TTITLE16=Tim McGraw - Hard on The Ticker
TTITLE17=Martina McBride - The Time Has Come
TTITLE18=Mary Chapin Carpenter - Take My Chances
TTITLE19=Johnny Cash - Jackson
TTITLE20=Alan Jackson - Chasin' That Neon Rainbow
TTITLE21=Deana Carter - It This Is Love
TTITLE22=Martina McBride - Wild Angels
EXTD=
EXTT0=
EXTT1=
EXTT2=
EXTT3=
EXTT4=
EXTT5=
EXTT6=
EXTT7=
EXTT8=
EXTT9=
EXTT10=
EXTT11=
EXTT12=
EXTT13=
EXTT14=
EXTT15=
EXTT16=
EXTT17=
EXTT18=
EXTT19=
EXTT20=
EXTT21=
EXTT22=
PLAYORDER=
